<svg width="72" height="72" viewBox="0 0 72 72" fill="none" xmlns="http://www.w3.org/2000/svg">
<g id="Group">
<path id="Vector" fill-rule="evenodd" clip-rule="evenodd" d="M72 72H0C0 72 25.2229 69.1084 29.5482 61.1154C33.5163 53.78 32.5895 41.29 32.5074 41.203C32.4591 41.1546 32.4157 41.1063 32.3722 41.0579C32.2322 40.908 32.0971 40.763 31.9474 40.6324C31.5081 40.2456 31.1413 39.7282 30.8034 39.2446C30.5089 38.8288 30.3158 38.3259 30.0068 37.9004C29.7172 37.5039 29.3696 37.1605 29.1089 36.7253C29.0172 36.5754 28.8676 36.4352 28.829 36.2515C28.8821 36.1983 28.9352 36.1548 28.9883 36.1209C29.2586 35.9323 29.5289 35.9323 29.78 36.0339C30.1951 36.1983 30.562 36.6335 30.7889 36.9188L30.7937 36.9236C30.8323 36.972 30.8661 37.03 30.8999 37.088C31.0158 37.2863 31.122 37.4942 31.3488 37.499C31.6192 37.2379 31.6385 36.6238 31.5468 36.0387C31.5323 35.942 31.513 35.8453 31.4937 35.7486C31.4068 35.3521 31.1751 34.8444 30.9385 34.356C30.8275 34.119 30.7116 33.8869 30.6103 33.6742C30.5475 33.5436 30.4123 33.2583 30.2868 32.9343C30.0648 32.3589 29.8958 31.6626 30.311 31.5321C30.6827 31.4112 30.8854 31.8077 31.0737 32.1365C31.4985 32.8812 31.7157 33.4614 32.0488 34.1529C32.1067 34.2738 32.1743 34.4333 32.2516 34.5832C32.3771 34.8298 32.5171 35.0523 32.6426 35.0233C32.8115 34.9894 32.7874 34.443 32.7584 33.974C32.7488 33.8676 32.7439 33.766 32.7343 33.6742C32.6957 33.1616 32.6426 32.6345 32.6088 32.1558C32.5605 31.5224 32.2612 30.2217 32.9274 30.1878C33.2943 30.1685 33.4053 30.3909 33.5018 30.9035C33.6805 31.827 33.748 32.9634 33.888 33.8386C33.9556 34.2496 34.0425 34.9072 34.308 34.9266C34.5783 34.9459 34.6604 34.3801 34.7473 34.032C34.839 33.6645 34.9356 33.2583 35.008 32.8618C35.0997 32.3638 35.1045 30.7149 35.7514 30.7487C36.2148 30.7681 36.1376 31.4644 36.1134 31.7448C36.07 32.209 36.0072 32.6249 35.9541 32.9489C35.9107 33.2438 35.8431 33.6113 35.7852 33.9691C35.6838 34.6364 35.6259 35.2699 35.8335 35.3376C36.0024 35.3956 36.2148 35.1442 36.4224 34.8153C36.601 34.5252 36.7748 34.1771 36.9051 33.9256C37.1706 33.4276 37.6003 32.3976 38.0975 32.6974C38.1554 32.7361 38.194 32.7941 38.2037 32.8666C38.2616 33.1858 37.9527 33.8144 37.6147 34.4817C37.3637 34.9797 37.0934 35.502 36.9486 35.9275C36.9486 35.9323 36.9437 35.942 36.9437 35.9468C36.7313 36.5803 36.77 37.3975 36.7024 38.1857C36.6976 38.2582 36.6879 38.3307 36.6831 38.3984C36.6589 38.6015 36.6396 38.8481 36.6155 39.1044C36.5672 39.6024 36.4996 40.1537 36.3596 40.5454C36.3065 40.6953 36.2245 40.8161 36.1376 40.908C36.1328 40.9129 36.1328 40.9467 36.1376 40.9999C36.181 41.4012 35.679 55.0566 40.0719 63.4751C43.5427 70.1384 72 72 72 72Z" fill="#3D3D3D"/>
<g id="Group_2">
<g id="Group_3">
<path id="Vector_2" d="M33.1253 23.1328C33.2653 23.2682 33.3715 23.4084 33.4729 23.5438C33.5695 23.6792 33.6612 23.8194 33.7384 23.9548C33.8929 24.2305 34.0136 24.5061 34.1101 24.7817C34.2984 25.3329 34.3756 25.8794 34.3805 26.4306C34.3805 26.9818 34.3032 27.5282 34.115 28.0795C34.0232 28.3551 33.9025 28.6307 33.7432 28.9063C33.666 29.0417 33.5791 29.182 33.4777 29.3174C33.3764 29.4528 33.2702 29.593 33.1302 29.7284C32.9902 29.593 32.8791 29.4528 32.7826 29.3174C32.6812 29.182 32.5943 29.0417 32.5171 28.9063C32.3626 28.6307 32.2419 28.3551 32.1454 28.0795C31.9571 27.5282 31.8799 26.9818 31.8799 26.4306C31.8799 25.8794 31.9619 25.3329 32.1502 24.7817C32.2419 24.5061 32.3626 24.2305 32.5219 23.9548C32.5992 23.8194 32.6861 23.6792 32.7874 23.5438C32.8791 23.4084 32.9853 23.273 33.1253 23.1328Z" fill="#1C442A"/>
<path id="Vector_3" d="M33.1253 15.604C33.2653 15.7394 33.3715 15.8796 33.4729 16.015C33.5695 16.1504 33.6612 16.2906 33.7384 16.426C33.8929 16.7017 34.0136 16.9773 34.1101 17.2529C34.2984 17.8041 34.3756 18.3505 34.3805 18.9018C34.3805 19.453 34.3032 19.9994 34.115 20.5507C34.0232 20.8263 33.9025 21.1019 33.7432 21.3775C33.666 21.5129 33.5791 21.6532 33.4777 21.7886C33.3764 21.9239 33.2702 22.0642 33.1302 22.1996C32.9902 22.0642 32.8791 21.9239 32.7826 21.7886C32.6812 21.6532 32.5943 21.5129 32.5171 21.3775C32.3626 21.1019 32.2419 20.8263 32.1454 20.5507C31.9571 19.9994 31.8799 19.453 31.8799 18.9018C31.8799 18.3505 31.9619 17.8041 32.1502 17.2529C32.2419 16.9773 32.3626 16.7017 32.5219 16.426C32.5992 16.2906 32.6861 16.1504 32.7874 16.015C32.8791 15.8748 32.9853 15.7394 33.1253 15.604Z" fill="#009444"/>
<path id="Vector_4" d="M38.5561 25.1831C38.363 25.1976 38.1892 25.2315 38.0251 25.2701C37.861 25.3088 37.7065 25.3572 37.5569 25.4104C37.2624 25.5168 36.9872 25.6473 36.741 25.7972C36.2438 26.0922 35.8238 26.4597 35.4618 26.8755C35.1046 27.2914 34.8053 27.7604 34.5929 28.302C34.4867 28.5728 34.3998 28.8581 34.337 29.1675C34.308 29.3223 34.2839 29.4867 34.2694 29.6559C34.2549 29.8252 34.2501 29.9992 34.2646 30.1975C34.4625 30.183 34.6315 30.1491 34.8004 30.1104C34.9646 30.0718 35.119 30.0234 35.2687 29.9702C35.568 29.8638 35.8383 29.7333 36.0845 29.5882C36.5817 29.2933 37.0017 28.9258 37.3589 28.5099C37.7162 28.0892 38.0106 27.6202 38.2279 27.0834C38.3341 26.8127 38.421 26.5274 38.4837 26.2179C38.5127 26.0632 38.5368 25.9036 38.5513 25.7343C38.5609 25.5554 38.5706 25.3765 38.5561 25.1831Z" fill="#1C442A"/>
<path id="Vector_5" d="M51.2134 20.4782C51.0251 20.4347 50.8465 20.4202 50.6776 20.4057C50.5086 20.396 50.3445 20.396 50.19 20.4057C49.8762 20.425 49.5769 20.4686 49.2969 20.5411C48.7321 20.6813 48.2301 20.9086 47.7667 21.2035C47.3032 21.4985 46.8832 21.866 46.5212 22.3205C46.3426 22.5478 46.1736 22.7992 46.0288 23.0797C45.9564 23.2199 45.8888 23.3698 45.8261 23.5246C45.7633 23.6841 45.7102 23.8485 45.6667 24.042C45.8598 24.0855 46.0336 24.1048 46.2026 24.1145C46.3715 24.1242 46.5357 24.1242 46.6902 24.1145C47.0039 24.0951 47.3032 24.0516 47.5832 23.9791C48.148 23.8389 48.6501 23.6116 49.1135 23.3118C49.5769 23.012 49.9921 22.6493 50.3541 22.1948C50.5327 21.9675 50.7017 21.7161 50.8465 21.4356C50.9189 21.2954 50.9865 21.1455 51.0493 20.9908C51.1168 20.836 51.1748 20.6716 51.2134 20.4782Z" fill="#D4BE29"/>
<path id="Vector_6" d="M42.9684 18.9019C42.7753 18.9164 42.6015 18.9502 42.4374 18.9889C42.2733 19.0276 42.1188 19.0759 41.9692 19.1291C41.6747 19.2355 41.3995 19.3661 41.1533 19.516C40.6561 19.8109 40.2361 20.1784 39.8789 20.5943C39.5217 21.0101 39.2224 21.4792 39.01 22.0207C38.9038 22.2915 38.8169 22.5768 38.7541 22.8911C38.7252 23.0458 38.701 23.2102 38.6866 23.3795C38.6721 23.5487 38.6673 23.7228 38.6866 23.9211C38.8845 23.9066 39.0534 23.8727 39.2224 23.834C39.3865 23.7953 39.541 23.747 39.6907 23.6938C39.9899 23.5874 40.2603 23.4569 40.5065 23.307C41.0037 23.012 41.4237 22.6445 41.7809 22.2286C42.1381 21.808 42.4326 21.3389 42.6498 20.8022C42.756 20.5314 42.8429 20.2461 42.9057 19.9366C42.9346 19.7819 42.9588 19.6223 42.9733 19.4531C42.9781 19.2742 42.9877 19.0953 42.9684 18.9019Z" fill="#009444"/>
<path id="Vector_7" d="M37.3202 18.9019C37.1464 18.9889 37.0016 19.0856 36.8616 19.1871C36.7264 19.2887 36.6009 19.3902 36.485 19.4966C36.2533 19.7094 36.0554 19.9366 35.8816 20.1687C35.5341 20.633 35.2879 21.131 35.1189 21.6581C34.9499 22.1803 34.8582 22.7315 34.8679 23.3118C34.8727 23.6019 34.9017 23.9017 34.9693 24.2112C35.003 24.3659 35.0417 24.5255 35.0948 24.6851C35.1479 24.8446 35.2106 25.009 35.3023 25.1831C35.4761 25.0961 35.6258 24.9994 35.7609 24.8978C35.8961 24.7963 36.0216 24.6947 36.1423 24.5884C36.374 24.3756 36.5768 24.1483 36.7457 23.9162C37.0933 23.452 37.3347 22.9491 37.5036 22.4269C37.6726 21.9047 37.7643 21.3534 37.7546 20.7732C37.7498 20.4831 37.7208 20.1833 37.6533 19.8738C37.6195 19.719 37.5809 19.5595 37.5278 19.3999C37.4747 19.2403 37.4119 19.0759 37.3202 18.9019Z" fill="#006838"/>
<path id="Vector_8" d="M41.3799 13.9697C41.1965 14.0374 41.042 14.1196 40.8924 14.2018C40.7475 14.284 40.6075 14.3759 40.482 14.4678C40.2262 14.6515 40.0041 14.8546 39.8062 15.0674C39.4104 15.4929 39.1111 15.9571 38.8794 16.46C38.6525 16.9629 38.498 17.4948 38.4401 18.0702C38.4111 18.3603 38.4063 18.6601 38.4352 18.9744C38.4497 19.134 38.4739 19.2936 38.5076 19.458C38.5414 19.6272 38.5849 19.7965 38.6573 19.9802C38.8407 19.9125 38.9952 19.8351 39.1449 19.7481C39.2897 19.6659 39.4297 19.574 39.5552 19.4822C39.811 19.2984 40.0331 19.0953 40.231 18.8826C40.6269 18.457 40.9262 17.9928 41.153 17.4899C41.3799 16.9871 41.5296 16.4552 41.5875 15.8749C41.6165 15.5848 41.6213 15.285 41.5923 14.9707C41.5778 14.8111 41.5537 14.6515 41.5199 14.4871C41.491 14.3227 41.4475 14.1535 41.3799 13.9697Z" fill="#D4BE29"/>
<path id="Vector_9" d="M36.8036 11.6389C36.6394 11.7405 36.4994 11.8517 36.3739 11.9629C36.2484 12.0741 36.1325 12.1902 36.0263 12.3062C35.8139 12.5383 35.6353 12.7801 35.4809 13.0267C35.1767 13.5199 34.9788 14.0421 34.8533 14.574C34.7326 15.1108 34.6892 15.662 34.7471 16.2423C34.7761 16.5324 34.834 16.8274 34.9257 17.1272C34.974 17.2771 35.0271 17.4318 35.0947 17.5865C35.1623 17.7413 35.2395 17.9008 35.3457 18.0652C35.5146 17.9637 35.6498 17.8525 35.7802 17.7413C35.9057 17.6301 36.0215 17.514 36.1326 17.398C36.345 17.1659 36.5236 16.9241 36.678 16.6775C36.9822 16.1843 37.1801 15.662 37.3008 15.1253C37.4215 14.5885 37.4649 14.0325 37.4021 13.4571C37.3732 13.1669 37.3153 12.872 37.2235 12.5722C37.1801 12.4223 37.1222 12.2675 37.0594 12.1128C36.9822 11.9629 36.9049 11.8033 36.8036 11.6389Z" fill="#D4BE29"/>
<path id="Vector_10" d="M48.9686 25.3039C48.79 25.2217 48.6259 25.1637 48.4618 25.1153C48.2976 25.067 48.1383 25.0331 47.9839 25.009C47.6749 24.9558 47.3756 24.9364 47.0811 24.9413C46.5019 24.9558 45.9564 25.067 45.4398 25.2507C44.9233 25.4393 44.4358 25.7004 43.982 26.0631C43.7551 26.2468 43.5379 26.4548 43.3351 26.6965C43.2337 26.8174 43.1324 26.948 43.0407 27.0882C42.9441 27.2284 42.8524 27.3783 42.7751 27.5573C42.9538 27.6443 43.1179 27.6975 43.282 27.7458C43.4461 27.7942 43.6055 27.828 43.7599 27.8522C44.0689 27.9054 44.373 27.9247 44.6626 27.9199C45.2419 27.9054 45.7874 27.7942 46.2991 27.6056C46.8156 27.417 47.3032 27.1511 47.757 26.7884C47.9839 26.6047 48.2011 26.3967 48.4038 26.1598C48.5052 26.0389 48.6066 25.9084 48.6983 25.7681C48.7997 25.6279 48.8914 25.478 48.9686 25.3039Z" fill="#009444"/>
<path id="Vector_11" d="M44.4261 23.244C44.233 23.2102 44.0592 23.2053 43.8903 23.2053C43.7213 23.2053 43.5572 23.215 43.4027 23.2343C43.0889 23.2682 42.7944 23.331 42.5193 23.4181C41.9641 23.5922 41.4717 23.8484 41.0276 24.1676C40.5835 24.4916 40.1877 24.8784 39.8497 25.3523C39.6808 25.5892 39.5311 25.8503 39.4008 26.1356C39.338 26.2807 39.2753 26.4306 39.2222 26.595C39.1691 26.7594 39.1256 26.9286 39.0967 27.1221C39.2898 27.1559 39.4636 27.1607 39.6373 27.1656C39.8063 27.1656 39.9704 27.1559 40.1249 27.1366C40.4387 27.1027 40.7332 27.0399 41.0083 26.9528C41.5635 26.7787 42.051 26.5225 42.4951 26.1985C42.9393 25.8745 43.3351 25.4828 43.6682 25.009C43.8371 24.772 43.9868 24.5109 44.1171 24.2256C44.1847 24.0805 44.2426 23.9306 44.2957 23.7711C44.3488 23.6067 44.3971 23.4374 44.4261 23.244Z" fill="#006838"/>
<path id="Vector_12" d="M47.6941 17.1321C47.501 17.1418 47.3273 17.1708 47.1583 17.2094C46.9942 17.2481 46.8349 17.2917 46.6852 17.34C46.3859 17.4416 46.1156 17.5673 45.8597 17.7075C45.3577 17.9928 44.9281 18.3506 44.5612 18.7616C44.1943 19.1726 43.8902 19.6368 43.6633 20.1687C43.5523 20.4347 43.4606 20.7248 43.393 21.0295C43.3592 21.1842 43.335 21.3438 43.3157 21.513C43.3012 21.6822 43.2916 21.8563 43.3012 22.0546C43.4992 22.0449 43.6681 22.0159 43.8371 21.9772C44.0012 21.9385 44.1605 21.895 44.3102 21.8467C44.6095 21.7451 44.8846 21.6194 45.1356 21.4792C45.6377 21.1939 46.0625 20.836 46.4294 20.425C46.7914 20.014 47.0955 19.5498 47.3224 19.0131C47.4335 18.7471 47.5252 18.457 47.5928 18.1524C47.6266 17.9976 47.6507 17.8381 47.67 17.6688C47.699 17.4996 47.7086 17.3255 47.6941 17.1321Z" fill="#D4BE29"/>
<path id="Vector_13" d="M46.7044 12.5577C46.5113 12.5867 46.3424 12.635 46.1831 12.6931C46.0238 12.7463 45.8741 12.8091 45.7293 12.8768C45.4445 13.0122 45.1838 13.1621 44.9473 13.3314C44.4742 13.6698 44.0928 14.0712 43.7694 14.516C43.4508 14.9609 43.1949 15.459 43.026 16.015C42.9439 16.2955 42.8812 16.5856 42.8474 16.8999C42.8329 17.0595 42.8232 17.2191 42.8232 17.3883C42.8232 17.5575 42.8329 17.7365 42.8667 17.9299C43.0598 17.9009 43.2287 17.8525 43.3929 17.7993C43.5522 17.7461 43.7066 17.6833 43.8466 17.6204C44.1315 17.485 44.3921 17.3351 44.6287 17.1659C45.0969 16.8274 45.4831 16.426 45.8017 15.9763C46.1203 15.5266 46.3713 15.0334 46.5403 14.4774C46.6224 14.1969 46.6851 13.9068 46.7189 13.5925C46.7334 13.4329 46.743 13.2733 46.743 13.1041C46.743 12.9252 46.7382 12.7511 46.7044 12.5577Z" fill="#F9ED32"/>
<path id="Vector_14" d="M41.5585 8.48145C41.375 8.54431 41.2157 8.62167 41.0661 8.70388C40.9164 8.78608 40.7813 8.86828 40.6509 8.96016C40.3902 9.13907 40.1634 9.33732 39.9606 9.54041C39.5551 9.95626 39.2413 10.4156 39.0048 10.9088C38.7683 11.4021 38.5993 11.934 38.5269 12.5094C38.4931 12.7995 38.4835 13.0993 38.5028 13.4136C38.5124 13.5732 38.5317 13.7328 38.5655 13.902C38.5945 14.0712 38.6379 14.2405 38.7007 14.4242C38.8841 14.3614 39.0434 14.284 39.1931 14.2066C39.3427 14.1244 39.4827 14.0422 39.613 13.9504C39.8737 13.7714 40.1006 13.5732 40.3034 13.3701C40.7089 12.9542 41.0178 12.4949 41.2592 11.9968C41.4957 11.4988 41.6598 10.9717 41.7322 10.3915C41.766 10.1013 41.7757 9.80153 41.7564 9.48722C41.7467 9.32765 41.7274 9.16808 41.6985 8.99884C41.6598 8.83443 41.6212 8.66519 41.5585 8.48145Z" fill="#F9ED32"/>
<path id="Vector_15" d="M33.352 8.00262C33.2023 8.12835 33.0865 8.2589 32.9754 8.38946C32.8692 8.52002 32.7679 8.65058 32.681 8.78113C32.5072 9.04225 32.3672 9.3082 32.2513 9.57899C32.0244 10.1157 31.9038 10.6573 31.8651 11.2037C31.8265 11.7501 31.8651 12.3062 32.01 12.8671C32.0824 13.1476 32.1837 13.4328 32.3189 13.7181C32.3865 13.8632 32.4637 14.0034 32.5554 14.1485C32.6472 14.2936 32.7437 14.4386 32.8741 14.5837C33.0237 14.458 33.1444 14.3274 33.2554 14.1969C33.3664 14.0663 33.463 13.9357 33.5499 13.8052C33.7237 13.5441 33.8685 13.2781 33.9795 13.0073C34.2064 12.4706 34.3271 11.929 34.3657 11.3826C34.4043 10.8362 34.3609 10.2801 34.2161 9.71921C34.1436 9.43876 34.0423 9.15346 33.9071 8.86817C33.8395 8.72311 33.7623 8.58288 33.6754 8.43782C33.5788 8.29275 33.4823 8.14769 33.352 8.00262Z" fill="#F9ED32"/>
<path id="Vector_16" d="M33.352 0C33.2023 0.125722 33.0865 0.256279 32.9754 0.386837C32.8692 0.517394 32.7679 0.647952 32.681 0.778509C32.5072 1.03962 32.3672 1.30557 32.2513 1.57636C32.0244 2.1131 31.9038 2.65467 31.8651 3.20107C31.8265 3.74748 31.8651 4.30356 32.01 4.86447C32.0824 5.14493 32.1837 5.43022 32.3189 5.71551C32.3865 5.86058 32.4637 6.00081 32.5554 6.14587C32.6472 6.29093 32.7437 6.436 32.8741 6.58106C33.0237 6.45534 33.1444 6.32478 33.2554 6.19422C33.3664 6.06367 33.463 5.93311 33.5499 5.80255C33.7237 5.54144 33.8685 5.27549 33.9795 5.0047C34.2064 4.46797 34.3271 3.92639 34.3657 3.37999C34.4043 2.83358 34.3609 2.2775 34.2161 1.71659C34.1436 1.43613 34.0423 1.15084 33.9071 0.865547C33.8395 0.720484 33.7623 0.580255 33.6754 0.435191C33.5788 0.290128 33.4823 0.145064 33.352 0Z" fill="#F9ED32"/>
<path id="Vector_17" d="M53.2022 15.3429C53.0091 15.3284 52.8305 15.338 52.6615 15.3525C52.4926 15.367 52.3333 15.3961 52.1788 15.4251C51.8698 15.4879 51.585 15.5798 51.3147 15.691C50.7789 15.9135 50.3154 16.2181 49.9003 16.5759C49.4851 16.9386 49.1279 17.3641 48.8383 17.867C48.6934 18.1184 48.5679 18.3892 48.4666 18.689C48.4135 18.8389 48.37 18.9936 48.3314 19.1629C48.2928 19.3273 48.2638 19.5014 48.2542 19.6996C48.4521 19.7141 48.6259 19.7045 48.7948 19.6899C48.9638 19.6754 49.1231 19.6513 49.2775 19.6174C49.5865 19.5546 49.8713 19.4627 50.1416 19.3515C50.6775 19.129 51.1409 18.8244 51.5561 18.4617C51.9664 18.0991 52.3284 17.6736 52.6132 17.1707C52.7581 16.9192 52.8836 16.6484 52.9898 16.3486C53.0429 16.1987 53.0863 16.044 53.1249 15.8796C53.1587 15.7104 53.1877 15.5363 53.2022 15.3429Z" fill="#F9ED32"/>
<path id="Vector_18" d="M55.9878 22.1125C55.8092 22.0303 55.6402 21.982 55.4761 21.9385C55.312 21.8949 55.1527 21.8659 54.9982 21.8417C54.6844 21.7982 54.3851 21.7837 54.0955 21.7934C53.5162 21.8176 52.9755 21.9385 52.4638 22.1367C51.9521 22.335 51.4694 22.6106 51.0253 22.9829C50.8032 23.1715 50.5908 23.3843 50.3929 23.626C50.2915 23.7469 50.195 23.8823 50.1033 24.0225C50.0115 24.1676 49.9246 24.3175 49.8474 24.4964C50.026 24.5786 50.195 24.6318 50.3591 24.6753C50.5232 24.7188 50.6825 24.7527 50.837 24.772C51.1508 24.8204 51.4501 24.8301 51.7397 24.8204C52.319 24.7962 52.8597 24.6705 53.3714 24.4722C53.8831 24.274 54.3658 23.9984 54.8099 23.626C55.032 23.4374 55.2444 23.2247 55.4423 22.9829C55.5437 22.862 55.6402 22.7266 55.732 22.5864C55.8237 22.4462 55.9106 22.2963 55.9878 22.1125Z" fill="#F9ED32"/>
<path id="Vector_19" d="M27.7429 25.1831C27.936 25.1976 28.1098 25.2315 28.2739 25.2701C28.438 25.3088 28.5925 25.3572 28.7421 25.4104C29.0366 25.5168 29.3118 25.6473 29.558 25.7972C30.0552 26.0922 30.4752 26.4597 30.8372 26.8755C31.1944 27.2914 31.4937 27.7604 31.7061 28.302C31.8123 28.5728 31.8992 28.8581 31.962 29.1675C31.9909 29.3223 32.0151 29.4867 32.0296 29.6559C32.044 29.8252 32.0489 29.9992 32.0344 30.1975C31.8365 30.183 31.6675 30.1491 31.4985 30.1104C31.3344 30.0718 31.1799 30.0234 31.0303 29.9702C30.731 29.8638 30.4607 29.7333 30.2145 29.5882C29.7173 29.2933 29.2973 28.9258 28.9401 28.5099C28.5828 28.0892 28.2884 27.6202 28.0711 27.0834C27.9649 26.8127 27.878 26.5274 27.8153 26.2179C27.7863 26.0632 27.7622 25.9036 27.7477 25.7343C27.7332 25.5554 27.7284 25.3765 27.7429 25.1831Z" fill="#1C442A"/>
<path id="Vector_20" d="M23.0457 33.1954C23.205 33.0842 23.3594 33.002 23.5139 32.9295C23.6684 32.857 23.818 32.7989 23.9677 32.7457C24.267 32.6442 24.5566 32.5765 24.8463 32.533C25.4207 32.4508 25.9759 32.475 26.5165 32.5765C27.0572 32.678 27.5785 32.857 28.0854 33.1422C28.3364 33.2873 28.5826 33.4566 28.824 33.6596C28.9447 33.7612 29.0605 33.8724 29.1812 33.9981C29.2971 34.1238 29.4129 34.2544 29.5191 34.4188C29.3598 34.53 29.2054 34.6122 29.0509 34.6848C28.8964 34.7573 28.7468 34.8201 28.5971 34.8685C28.2978 34.97 28.0082 35.0377 27.7185 35.0813C27.1441 35.1635 26.5889 35.1393 26.0483 35.0377C25.5076 34.9362 24.9863 34.7525 24.4794 34.4672C24.2284 34.3221 23.9773 34.1529 23.7408 33.9498C23.6201 33.8482 23.4994 33.737 23.3836 33.6113C23.2677 33.4904 23.1519 33.355 23.0457 33.1954Z" fill="#1C442A"/>
<path id="Vector_21" d="M15.0806 20.4782C15.2688 20.4347 15.4474 20.4202 15.6164 20.4057C15.7854 20.396 15.9495 20.396 16.104 20.4057C16.4177 20.425 16.717 20.4686 16.997 20.5411C17.5618 20.6813 18.0639 20.9086 18.5273 21.2035C18.9907 21.4985 19.4107 21.866 19.7727 22.3205C19.9514 22.5478 20.1203 22.7992 20.2651 23.0797C20.3375 23.2199 20.4051 23.3698 20.4679 23.5246C20.5306 23.6841 20.5837 23.8485 20.6272 24.042C20.4341 24.0855 20.2603 24.1048 20.0914 24.1145C19.9224 24.1242 19.7583 24.1242 19.599 24.1145C19.2852 24.0951 18.9859 24.0516 18.7059 23.9791C18.1411 23.8389 17.6391 23.6116 17.1756 23.3118C16.7122 23.012 16.2971 22.6493 15.935 22.1948C15.7564 21.9675 15.5874 21.7161 15.4426 21.4356C15.3702 21.2954 15.3026 21.1455 15.2399 20.9908C15.1771 20.836 15.124 20.6716 15.0806 20.4782Z" fill="#D4BE29"/>
<path id="Vector_22" d="M11.8848 26.8949C12.0537 26.7934 12.213 26.7208 12.3675 26.658C12.5268 26.5951 12.6765 26.5419 12.8309 26.4984C13.1351 26.4114 13.4295 26.363 13.7192 26.3388C14.2984 26.2905 14.8488 26.3437 15.3846 26.4742C15.9156 26.6048 16.4321 26.8175 16.9197 27.127C17.1659 27.2818 17.4024 27.4703 17.6293 27.6879C17.7452 27.7991 17.8562 27.9152 17.9672 28.0458C18.0783 28.1763 18.1845 28.3165 18.281 28.4858C18.1121 28.5873 17.9528 28.6599 17.7983 28.7276C17.639 28.7904 17.4845 28.8436 17.3349 28.8871C17.0307 28.9742 16.7363 29.0225 16.4466 29.0515C15.8673 29.0999 15.317 29.0467 14.786 28.9113C14.255 28.7759 13.7385 28.568 13.2509 28.2537C13.0047 28.0989 12.7682 27.9152 12.5413 27.6976C12.4254 27.5864 12.3144 27.4703 12.2034 27.3398C12.0875 27.1996 11.9813 27.0642 11.8848 26.8949Z" fill="#D4BE29"/>
<path id="Vector_23" d="M23.3256 18.9019C23.5187 18.9164 23.6925 18.9502 23.8566 18.9889C24.0207 19.0276 24.1752 19.0759 24.3248 19.1291C24.6193 19.2355 24.8945 19.3661 25.1407 19.516C25.6379 19.8109 26.0579 20.1784 26.4151 20.5943C26.7723 21.0101 27.0716 21.4792 27.284 22.0207C27.3902 22.2915 27.4771 22.5768 27.5399 22.8911C27.5688 23.0458 27.593 23.2102 27.6074 23.3795C27.6219 23.5487 27.6268 23.7228 27.6074 23.9211C27.4095 23.9066 27.2406 23.8727 27.0716 23.834C26.9075 23.7953 26.753 23.747 26.6034 23.6938C26.3041 23.5874 26.0337 23.4569 25.7875 23.307C25.2903 23.012 24.8703 22.6445 24.5131 22.2286C24.1559 21.808 23.8614 21.3389 23.6442 20.8022C23.538 20.5314 23.4511 20.2461 23.3883 19.9366C23.3594 19.7819 23.3352 19.6223 23.3207 19.4531C23.3159 19.2742 23.3111 19.0953 23.3256 18.9019Z" fill="#009444"/>
<path id="Vector_24" d="M28.9737 18.9019C29.1475 18.9889 29.2923 19.0856 29.4323 19.1871C29.5675 19.2887 29.693 19.3902 29.8089 19.4966C30.0406 19.7094 30.2385 19.9366 30.4123 20.1687C30.7598 20.633 31.006 21.131 31.175 21.6581C31.344 22.1803 31.4357 22.7315 31.426 23.3118C31.4212 23.6019 31.3922 23.9017 31.3246 24.2112C31.2909 24.3659 31.2522 24.5255 31.1991 24.6851C31.146 24.8446 31.0833 25.009 30.9916 25.1831C30.8178 25.0961 30.6681 24.9994 30.533 24.8978C30.3978 24.7963 30.2723 24.6947 30.1516 24.5884C29.9199 24.3756 29.7171 24.1483 29.5482 23.9162C29.2006 23.452 28.9592 22.9491 28.7903 22.4269C28.6213 21.9047 28.5296 21.3534 28.5393 20.7732C28.5441 20.4831 28.5731 20.1833 28.6406 19.8738C28.6744 19.719 28.7131 19.5595 28.7662 19.3999C28.8241 19.2403 28.882 19.0759 28.9737 18.9019Z" fill="#006838"/>
<path id="Vector_25" d="M24.9186 13.9697C25.1021 14.0374 25.2565 14.1196 25.4062 14.2018C25.551 14.284 25.691 14.3759 25.8165 14.4678C26.0724 14.6515 26.2944 14.8546 26.4923 15.0674C26.8882 15.4929 27.1875 15.9571 27.4192 16.46C27.6461 16.9629 27.8006 17.4948 27.8585 18.0702C27.8875 18.3603 27.8923 18.6601 27.8633 18.9744C27.8488 19.134 27.8247 19.2936 27.7909 19.458C27.7571 19.6272 27.7137 19.7965 27.6413 19.9802C27.4578 19.9125 27.3033 19.8351 27.1537 19.7481C27.004 19.6659 26.8689 19.574 26.7434 19.4822C26.4875 19.2984 26.2655 19.0953 26.0675 18.8826C25.6717 18.457 25.3724 17.9928 25.1455 17.4899C24.9186 16.9871 24.769 16.4552 24.7111 15.8749C24.6821 15.5848 24.6773 15.285 24.7062 14.9707C24.7207 14.8111 24.7448 14.6515 24.7786 14.4871C24.8076 14.3227 24.8462 14.1535 24.9186 13.9697Z" fill="#D4BE29"/>
<path id="Vector_26" d="M29.4951 11.6389C29.6593 11.7405 29.7992 11.8517 29.9248 11.9629C30.0503 12.0741 30.1661 12.1902 30.2723 12.3062C30.4847 12.5383 30.6633 12.7801 30.8178 13.0267C31.1219 13.5199 31.3199 14.0421 31.4454 14.574C31.5661 15.1108 31.6095 15.662 31.5516 16.2423C31.5226 16.5324 31.4647 16.8274 31.373 17.1272C31.3247 17.2771 31.2716 17.4318 31.204 17.5865C31.1364 17.7413 31.0592 17.9008 30.953 18.0652C30.784 17.9637 30.6489 17.8525 30.5185 17.7413C30.393 17.6301 30.2772 17.514 30.1661 17.398C29.9537 17.1659 29.7751 16.9241 29.6206 16.6775C29.3165 16.1843 29.1186 15.662 28.9979 15.1253C28.8772 14.5885 28.8338 14.0325 28.8965 13.4571C28.9255 13.1669 28.9834 12.872 29.0751 12.5722C29.1186 12.4223 29.1765 12.2675 29.2441 12.1128C29.3117 11.9629 29.3889 11.8033 29.4951 11.6389Z" fill="#D4BE29"/>
<path id="Vector_27" d="M17.3254 25.3039C17.5041 25.2217 17.6682 25.1637 17.8323 25.1153C17.9964 25.067 18.1557 25.0331 18.3102 25.009C18.6192 24.9558 18.9185 24.9364 19.2129 24.9413C19.7922 24.9558 20.3377 25.067 20.8542 25.2507C21.3708 25.4393 21.8583 25.7004 22.3121 26.0631C22.539 26.2468 22.7562 26.4548 22.959 26.6965C23.0603 26.8174 23.1617 26.948 23.2534 27.0882C23.35 27.2284 23.4417 27.3783 23.5189 27.5573C23.3403 27.6443 23.1762 27.6975 23.0121 27.7458C22.8479 27.7942 22.6886 27.828 22.5342 27.8522C22.2204 27.9054 21.9211 27.9247 21.6314 27.9199C21.0522 27.9054 20.5067 27.7942 19.995 27.6056C19.4784 27.417 18.9909 27.1511 18.5371 26.7884C18.3102 26.6047 18.093 26.3967 17.8902 26.1598C17.7889 26.0389 17.6875 25.9084 17.5958 25.7681C17.4992 25.6279 17.4075 25.478 17.3254 25.3039Z" fill="#009444"/>
<path id="Vector_28" d="M21.8679 23.244C22.061 23.2102 22.2348 23.2053 22.4038 23.2053C22.5727 23.2053 22.7368 23.215 22.8913 23.2343C23.2051 23.2682 23.4996 23.331 23.7747 23.4181C24.3299 23.5922 24.8223 23.8484 25.2664 24.1676C25.7105 24.4916 26.1063 24.8784 26.4443 25.3523C26.6132 25.5892 26.7629 25.8503 26.8932 26.1356C26.956 26.2807 27.0187 26.4306 27.0718 26.595C27.1249 26.7594 27.1684 26.9286 27.1973 27.1221C27.0042 27.1559 26.8304 27.1607 26.6567 27.1656C26.4877 27.1656 26.3236 27.1559 26.1691 27.1366C25.8553 27.1027 25.5609 27.0399 25.2857 26.9528C24.7305 26.7787 24.243 26.5225 23.7989 26.1985C23.3547 25.8745 22.9589 25.4828 22.6258 25.009C22.4569 24.772 22.3072 24.5109 22.1769 24.2256C22.1093 24.0805 22.0514 23.9306 21.9983 23.7711C21.9452 23.6067 21.8969 23.4374 21.8679 23.244Z" fill="#006838"/>
<path id="Vector_29" d="M18.5997 17.1321C18.7928 17.1418 18.9665 17.1708 19.1355 17.2094C19.2996 17.2481 19.4589 17.2917 19.6086 17.34C19.9079 17.4416 20.1782 17.5673 20.4341 17.7075C20.9361 17.9928 21.3657 18.3506 21.7326 18.7616C22.0995 19.1726 22.4036 19.6368 22.6305 20.1687C22.7415 20.4347 22.8332 20.7248 22.9008 21.0295C22.9346 21.1842 22.9588 21.3438 22.9781 21.513C22.9926 21.6822 23.0022 21.8563 22.9926 22.0546C22.7946 22.0449 22.6257 22.0159 22.4567 21.9772C22.2926 21.9385 22.1333 21.895 21.9836 21.8467C21.6843 21.7451 21.4092 21.6194 21.1582 21.4792C20.6561 21.1939 20.2313 20.836 19.8644 20.425C19.5024 20.014 19.1983 19.5498 18.9714 19.0131C18.8603 18.7471 18.7686 18.457 18.701 18.1524C18.6673 17.9976 18.6431 17.8381 18.6238 17.6688C18.5948 17.4996 18.5852 17.3255 18.5997 17.1321Z" fill="#D4BE29"/>
<path id="Vector_30" d="M19.5942 12.5577C19.7873 12.5867 19.9563 12.635 20.1156 12.6931C20.2749 12.7463 20.4245 12.8091 20.5694 12.8768C20.8542 13.0122 21.1148 13.1621 21.3514 13.3314C21.8245 13.6698 22.2058 14.0712 22.5293 14.516C22.8479 14.9609 23.1037 15.459 23.2727 16.015C23.3547 16.2955 23.4175 16.5856 23.4513 16.8999C23.4658 17.0595 23.4754 17.2191 23.4754 17.3883C23.4754 17.5575 23.4658 17.7365 23.432 17.9299C23.2389 17.9009 23.0699 17.8525 22.9058 17.7993C22.7465 17.7461 22.592 17.6833 22.452 17.6204C22.1672 17.485 21.9065 17.3351 21.67 17.1659C21.2017 16.8274 20.8156 16.426 20.4969 15.9763C20.1783 15.5266 19.9273 15.0334 19.7584 14.4774C19.6763 14.1969 19.6135 13.9068 19.5797 13.5925C19.5653 13.4329 19.5556 13.2733 19.5556 13.1041C19.5508 12.9252 19.5604 12.7511 19.5942 12.5577Z" fill="#F9ED32"/>
<path id="Vector_31" d="M24.7402 8.48145C24.9237 8.54431 25.083 8.62167 25.2326 8.70388C25.3823 8.78608 25.5174 8.86828 25.6478 8.96016C25.9085 9.13907 26.1353 9.33732 26.3381 9.54041C26.7436 9.95626 27.0574 10.4156 27.2939 10.9088C27.5304 11.4021 27.6994 11.934 27.7718 12.5094C27.8056 12.7995 27.8153 13.0993 27.7959 13.4136C27.7863 13.5732 27.767 13.7328 27.7332 13.902C27.7042 14.0712 27.6608 14.2405 27.598 14.4242C27.4146 14.3614 27.2553 14.284 27.1056 14.2066C26.956 14.1244 26.816 14.0422 26.6857 13.9504C26.425 13.7714 26.1981 13.5732 25.9953 13.3701C25.5898 12.9542 25.2809 12.4949 25.0395 11.9968C24.803 11.4988 24.6389 10.9717 24.5664 10.3915C24.5327 10.1013 24.523 9.80153 24.5423 9.48722C24.552 9.32765 24.5713 9.16808 24.6002 8.99884C24.634 8.83443 24.6727 8.66519 24.7402 8.48145Z" fill="#F9ED32"/>
<path id="Vector_32" d="M13.0967 15.3429C13.2898 15.3284 13.4684 15.338 13.6373 15.3525C13.8063 15.367 13.9656 15.3961 14.1201 15.4251C14.429 15.4879 14.7138 15.5798 14.9842 15.691C15.52 15.9135 15.9834 16.2181 16.3986 16.5759C16.8137 16.9386 17.171 17.3641 17.4606 17.867C17.6054 18.1184 17.7309 18.3892 17.8323 18.689C17.8854 18.8389 17.9289 18.9936 17.9675 19.1629C18.0061 19.3273 18.0351 19.5014 18.0447 19.6996C17.8516 19.7141 17.673 19.7045 17.5041 19.6899C17.3351 19.6754 17.1758 19.6513 17.0213 19.6174C16.7124 19.5546 16.4276 19.4627 16.1572 19.3515C15.6214 19.129 15.158 18.8244 14.7428 18.4617C14.3325 18.0991 13.9704 17.6736 13.6856 17.1707C13.5408 16.9192 13.4153 16.6484 13.3091 16.3486C13.256 16.1987 13.2125 16.044 13.1739 15.8796C13.1401 15.7104 13.1063 15.5363 13.0967 15.3429Z" fill="#F9ED32"/>
<path id="Vector_33" d="M10.3064 22.1125C10.485 22.0303 10.654 21.982 10.8181 21.9385C10.9822 21.8949 11.1415 21.8659 11.296 21.8417C11.6098 21.7982 11.9091 21.7837 12.1987 21.7934C12.778 21.8176 13.3187 21.9385 13.8304 22.1367C14.3421 22.335 14.8248 22.6106 15.2689 22.9829C15.491 23.1715 15.7034 23.3843 15.9013 23.626C16.0027 23.7469 16.0992 23.8823 16.1909 24.0225C16.2827 24.1676 16.3696 24.3175 16.4468 24.4964C16.2682 24.5786 16.0992 24.6318 15.9351 24.6753C15.771 24.7188 15.6117 24.7527 15.4572 24.772C15.1434 24.8204 14.8441 24.8301 14.5545 24.8204C13.9752 24.7962 13.4345 24.6705 12.9228 24.4722C12.4111 24.274 11.9284 23.9984 11.4843 23.626C11.2622 23.4374 11.0498 23.2247 10.8519 22.9829C10.7505 22.862 10.654 22.7266 10.5622 22.5864C10.4705 22.4462 10.3836 22.2963 10.3064 22.1125Z" fill="#F9ED32"/>
<path id="Vector_34" d="M7.94116 16.8903C8.12943 16.8371 8.30321 16.8129 8.47217 16.7936C8.64113 16.7791 8.80526 16.7694 8.95973 16.7694C9.27351 16.7742 9.57281 16.8033 9.85762 16.8613C10.4272 16.9725 10.9438 17.1804 11.4169 17.456C11.8948 17.7317 12.3292 18.075 12.7106 18.5102C12.9037 18.7278 13.0775 18.9695 13.2368 19.2452C13.314 19.3806 13.3912 19.5256 13.4588 19.6804C13.5264 19.8351 13.5892 19.9995 13.6423 20.1881C13.454 20.2413 13.2802 20.2654 13.1113 20.2848C12.9423 20.3041 12.7782 20.309 12.6237 20.309C12.3099 20.3041 12.0106 20.2751 11.7258 20.2171C11.1562 20.101 10.6397 19.898 10.1666 19.6223C9.69349 19.3467 9.25903 18.9986 8.87767 18.5634C8.68457 18.3458 8.51079 18.104 8.35149 17.8284C8.26942 17.693 8.19701 17.5479 8.12943 17.3932C8.05219 17.2433 7.98944 17.0789 7.94116 16.8903Z" fill="#F9ED32"/>
<path id="Vector_35" d="M14.3953 10.4446C14.5884 10.464 14.7622 10.5027 14.9263 10.551C15.0904 10.5945 15.2449 10.6477 15.3897 10.7058C15.6842 10.8218 15.9497 10.962 16.191 11.1168C16.6786 11.4311 17.0841 11.8082 17.4317 12.2386C17.7744 12.669 18.0544 13.1477 18.2523 13.6941C18.3489 13.9649 18.4261 14.2598 18.4744 14.5693C18.4985 14.724 18.5178 14.8884 18.5227 15.0577C18.5275 15.2269 18.5323 15.4058 18.5082 15.5992C18.3151 15.5799 18.1413 15.5412 17.9772 15.4977C17.813 15.4542 17.6586 15.401 17.5137 15.343C17.2193 15.2269 16.9538 15.0867 16.7124 14.9319C16.2248 14.6176 15.8193 14.2405 15.4766 13.8101C15.1339 13.3798 14.8539 12.9011 14.6608 12.3546C14.5642 12.0839 14.487 11.7889 14.4339 11.4794C14.4098 11.3247 14.3904 11.1603 14.3856 10.991C14.3711 10.8121 14.3711 10.6381 14.3953 10.4446Z" fill="#F9ED32"/>
<path id="Vector_36" d="M19.8405 6.58112C20.0288 6.62947 20.1929 6.69233 20.3474 6.76003C20.5019 6.82772 20.6467 6.90509 20.7819 6.98246C21.057 7.14203 21.2984 7.3161 21.5156 7.50469C21.9549 7.88669 22.3025 8.31704 22.5825 8.79092C22.8624 9.26479 23.07 9.78219 23.1859 10.3479C23.2438 10.6332 23.2776 10.933 23.2824 11.2473C23.2824 11.4069 23.2776 11.5665 23.2631 11.7357C23.2438 11.905 23.2197 12.079 23.1714 12.2676C22.9831 12.2193 22.819 12.1564 22.6597 12.0887C22.5052 12.021 22.3604 11.9485 22.2204 11.8663C21.9452 11.7067 21.7039 11.5326 21.4866 11.344C21.0474 10.962 20.6998 10.5317 20.4246 10.053C20.1495 9.5791 19.9419 9.06171 19.826 8.49112C19.7681 8.20583 19.7343 7.90603 19.7295 7.59173C19.7295 7.43216 19.7343 7.27259 19.7488 7.10334C19.7681 6.94377 19.7922 6.7697 19.8405 6.58112Z" fill="#F9ED32"/>
<path id="Vector_37" d="M28.3992 3.31714C28.5585 3.43319 28.684 3.55408 28.8047 3.67496C28.9205 3.79585 29.0267 3.92157 29.1233 4.04729C29.3164 4.29874 29.4757 4.55018 29.606 4.8113C29.8715 5.32869 30.0308 5.86059 30.1081 6.407C30.1901 6.95341 30.1853 7.50465 30.0839 8.08007C30.0308 8.36536 29.9488 8.65549 29.8377 8.95045C29.7798 9.09552 29.7122 9.24541 29.635 9.39531C29.5529 9.54521 29.466 9.69995 29.3502 9.85468C29.1909 9.73863 29.0654 9.61774 28.9447 9.49686C28.8288 9.37597 28.7178 9.25025 28.6212 9.12936C28.4282 8.87792 28.2689 8.62647 28.1337 8.36536C27.8682 7.84797 27.7137 7.31607 27.6316 6.76966C27.5544 6.22325 27.5544 5.66717 27.6606 5.09659C27.7137 4.8113 27.7958 4.52117 27.9068 4.22621C27.9647 4.08114 28.0323 3.93124 28.1095 3.78134C28.1916 3.62661 28.2833 3.47187 28.3992 3.31714Z" fill="#F9ED32"/>
<path id="Vector_38" d="M4.52319 24.4674C4.68732 24.3611 4.84663 24.2837 5.0011 24.216C5.15558 24.1483 5.31005 24.0951 5.4597 24.0468C5.76382 23.9549 6.05346 23.8969 6.34311 23.863C6.91756 23.8002 7.47271 23.8388 8.00854 23.9549C8.54438 24.0709 9.06573 24.2692 9.55813 24.5738C9.80432 24.7237 10.0457 24.9026 10.2822 25.1154C10.3981 25.2218 10.5139 25.3378 10.625 25.4635C10.736 25.5941 10.847 25.7295 10.9532 25.8939C10.7891 26.0003 10.6298 26.0777 10.4753 26.1454C10.3208 26.213 10.1664 26.2711 10.0167 26.3146C9.7126 26.4065 9.42296 26.4645 9.13332 26.4983C8.55886 26.5612 8.00372 26.5225 7.46788 26.4016C6.93204 26.2807 6.41552 26.0825 5.9183 25.7827C5.6721 25.6328 5.43074 25.4539 5.1942 25.2411C5.07834 25.1347 4.96248 25.0187 4.85145 24.893C4.74042 24.7672 4.6294 24.6319 4.52319 24.4674Z" fill="#F9ED32"/>
<path id="Vector_39" d="M54.3657 26.8949C54.1968 26.7934 54.0375 26.7208 53.883 26.658C53.7237 26.5951 53.574 26.5419 53.4196 26.4984C53.1154 26.4114 52.821 26.363 52.5313 26.3388C51.952 26.2905 51.4017 26.3437 50.8659 26.4742C50.3349 26.6048 49.8184 26.8175 49.3308 27.127C49.0846 27.2818 48.8481 27.4703 48.6212 27.6879C48.5053 27.7991 48.3943 27.9152 48.2833 28.0458C48.1722 28.1763 48.066 28.3165 47.9695 28.4858C48.1384 28.5873 48.2977 28.6599 48.4522 28.7276C48.6115 28.7904 48.766 28.8436 48.9156 28.8871C49.2198 28.9742 49.5142 29.0225 49.8039 29.0515C50.3832 29.0999 50.9335 29.0467 51.4645 28.9113C51.9955 28.7759 52.512 28.568 52.9996 28.2537C53.2458 28.0989 53.4823 27.9152 53.7092 27.6976C53.8251 27.5864 53.9361 27.4703 54.0471 27.3398C54.1582 27.1996 54.2692 27.0642 54.3657 26.8949Z" fill="#D4BE29"/>
<path id="Vector_40" d="M54.6601 33.8772C54.5346 33.7273 54.4043 33.6112 54.2739 33.5C54.1436 33.3936 54.0133 33.2921 53.8829 33.2051C53.6222 33.031 53.3567 32.8907 53.0864 32.7747C52.5506 32.5474 52.0099 32.4265 51.4644 32.3879C50.9189 32.3492 50.3638 32.3879 49.8038 32.5329C49.5238 32.6055 49.239 32.707 48.9542 32.8424C48.8094 32.9101 48.6694 32.9875 48.5246 33.0793C48.3797 33.1712 48.2349 33.2679 48.0901 33.3985C48.2156 33.5484 48.3459 33.6693 48.4763 33.7756C48.6066 33.8869 48.737 33.9836 48.8673 34.0706C49.128 34.2447 49.3935 34.3897 49.6638 34.501C50.1996 34.7282 50.7403 34.8443 51.2858 34.8878C51.8313 34.9265 52.3864 34.883 52.9464 34.7379C53.2264 34.6654 53.5112 34.5638 53.796 34.4284C53.9409 34.3607 54.0808 34.2834 54.2257 34.1963C54.3705 34.1045 54.5153 34.0077 54.6601 33.8772Z" fill="#D4BE29"/>
<path id="Vector_41" d="M50.4508 30.9276C50.3059 30.7971 50.1611 30.6955 50.0163 30.6036C49.8715 30.5118 49.7315 30.4344 49.5867 30.3667C49.3019 30.2265 49.0219 30.1249 48.7419 30.0476C48.1819 29.8977 47.6268 29.8493 47.0813 29.8832C46.531 29.917 45.9903 30.0331 45.4545 30.2555C45.1841 30.3667 44.9186 30.5069 44.658 30.6762C44.5276 30.7632 44.3924 30.8599 44.2621 30.9663C44.1318 31.0775 44.0014 31.1936 43.8711 31.3435C44.0159 31.474 44.1607 31.5756 44.3056 31.6674C44.4504 31.7593 44.5904 31.8367 44.7352 31.9044C45.02 32.0446 45.3 32.1461 45.58 32.2235C46.1399 32.3734 46.6951 32.4218 47.2406 32.3831C47.7909 32.3444 48.3316 32.2284 48.8674 32.0108C49.1377 31.8995 49.4032 31.7593 49.6639 31.5901C49.7943 31.503 49.9294 31.4063 50.0598 31.2999C50.1949 31.1887 50.3253 31.0727 50.4508 30.9276Z" fill="#009444"/>
<path id="Vector_42" d="M49.9922 36.5029C49.8812 36.3434 49.7654 36.2128 49.6447 36.0871C49.5288 35.9662 49.4081 35.855 49.2826 35.7534C49.0413 35.5504 48.7902 35.386 48.5344 35.2457C48.0275 34.9653 47.5013 34.7912 46.9607 34.6945C46.42 34.5978 45.8649 34.5833 45.2904 34.6703C45.0056 34.7138 44.7111 34.7864 44.4167 34.8927C44.267 34.9459 44.1174 35.0088 43.9629 35.0813C43.8084 35.1587 43.6539 35.2409 43.4946 35.3569C43.6057 35.5165 43.7215 35.6519 43.8374 35.7728C43.9532 35.8937 44.0739 36.0049 44.1946 36.1064C44.436 36.3095 44.687 36.4739 44.9428 36.6142C45.4497 36.8946 45.9759 37.0687 46.5214 37.1606C47.062 37.2524 47.6172 37.2718 48.1916 37.1799C48.4765 37.1364 48.7709 37.0639 49.0654 36.9575C49.215 36.9043 49.3647 36.8414 49.5192 36.7689C49.6785 36.7012 49.8329 36.619 49.9922 36.5029Z" fill="#009444"/>
<path id="Vector_43" d="M58.3095 16.8903C58.1212 16.8371 57.9475 16.8129 57.7785 16.7936C57.6095 16.7791 57.4454 16.7694 57.2909 16.7694C56.9772 16.7742 56.6779 16.8033 56.393 16.8613C55.8234 16.9725 55.3069 17.1804 54.8338 17.456C54.3559 17.7317 53.9214 18.075 53.5401 18.5102C53.347 18.7278 53.1732 18.9695 53.0139 19.2452C52.9367 19.3806 52.8594 19.5256 52.7918 19.6804C52.7243 19.8351 52.6615 19.9995 52.6084 20.1881C52.7967 20.2413 52.9705 20.2654 53.1394 20.2848C53.3084 20.3041 53.4725 20.309 53.627 20.309C53.9407 20.3041 54.24 20.2751 54.5249 20.2171C55.0945 20.101 55.611 19.898 56.0841 19.6223C56.5572 19.3467 56.9916 18.9986 57.373 18.5634C57.5661 18.3458 57.7399 18.104 57.8992 17.8284C57.9812 17.693 58.0537 17.5479 58.1212 17.3932C58.1985 17.2433 58.2612 17.0789 58.3095 16.8903Z" fill="#F9ED32"/>
<path id="Vector_44" d="M51.8552 10.4446C51.6621 10.464 51.4883 10.5027 51.3242 10.551C51.1601 10.5945 51.0056 10.6477 50.8608 10.7058C50.5663 10.8218 50.3008 10.962 50.0594 11.1168C49.5719 11.4311 49.1664 11.8082 48.8188 12.2386C48.4761 12.669 48.1961 13.1477 47.9981 13.6941C47.9016 13.9649 47.8244 14.2598 47.7761 14.5693C47.752 14.724 47.7326 14.8884 47.7278 15.0577C47.723 15.2269 47.7182 15.4058 47.7423 15.5992C47.9354 15.5799 48.1092 15.5412 48.2733 15.4977C48.4374 15.4542 48.5919 15.401 48.7367 15.343C49.0312 15.2269 49.2967 15.0867 49.5381 14.9319C50.0256 14.6176 50.4311 14.2405 50.7739 13.8101C51.1166 13.3798 51.3966 12.9011 51.5897 12.3546C51.6863 12.0839 51.7635 11.7889 51.8166 11.4794C51.8407 11.3247 51.86 11.1603 51.8649 10.991C51.8793 10.8121 51.8793 10.6381 51.8552 10.4446Z" fill="#F9ED32"/>
<path id="Vector_45" d="M46.4102 6.58112C46.2219 6.62947 46.0578 6.69233 45.9033 6.76003C45.7488 6.82772 45.604 6.90509 45.4688 6.98246C45.1937 7.14203 44.9523 7.3161 44.7351 7.50469C44.2958 7.88669 43.9482 8.31704 43.6682 8.79092C43.3882 9.26479 43.1807 9.78219 43.0648 10.3479C43.0069 10.6332 42.9731 10.933 42.9683 11.2473C42.9683 11.4069 42.9731 11.5665 42.9876 11.7357C43.0069 11.905 43.031 12.079 43.0793 12.2676C43.2676 12.2193 43.4317 12.1564 43.591 12.0887C43.7455 12.021 43.8903 11.9485 44.0303 11.8663C44.3054 11.7067 44.5468 11.5326 44.764 11.344C45.2033 10.962 45.5509 10.5317 45.826 10.053C46.1012 9.5791 46.3088 9.06171 46.4246 8.49112C46.4826 8.20583 46.5164 7.90603 46.5212 7.59173C46.5212 7.43216 46.5164 7.27259 46.5019 7.10334C46.4826 6.94377 46.4584 6.7697 46.4102 6.58112Z" fill="#F9ED32"/>
<path id="Vector_46" d="M37.8512 3.31714C37.6919 3.43319 37.5664 3.55408 37.4457 3.67496C37.3299 3.79585 37.2237 3.92157 37.1271 4.04729C36.934 4.29874 36.7747 4.55018 36.6444 4.8113C36.3789 5.32869 36.2196 5.86059 36.1424 6.407C36.0603 6.95341 36.0651 7.50465 36.1665 8.08007C36.2196 8.36536 36.3017 8.65549 36.4127 8.95045C36.4706 9.09552 36.5382 9.24541 36.6154 9.39531C36.6975 9.54521 36.7844 9.69995 36.9003 9.85468C37.0596 9.73863 37.1851 9.61774 37.3058 9.49686C37.4216 9.37597 37.5326 9.25025 37.6292 9.12936C37.8223 8.87792 37.9816 8.62647 38.1168 8.36536C38.3823 7.84797 38.5367 7.31607 38.6188 6.76966C38.696 6.22325 38.696 5.66717 38.5898 5.09659C38.5367 4.8113 38.4547 4.52117 38.3436 4.22621C38.2857 4.08114 38.2181 3.93124 38.1409 3.78134C38.054 3.62661 37.9671 3.47187 37.8512 3.31714Z" fill="#F9ED32"/>
<path id="Vector_47" d="M61.7225 24.4674C61.5584 24.3611 61.3991 24.2837 61.2446 24.216C61.0901 24.1483 60.9357 24.0951 60.786 24.0468C60.4867 23.9549 60.1922 23.8969 59.9026 23.863C59.3281 23.8002 58.773 23.8388 58.2372 23.9549C57.7013 24.0709 57.18 24.2692 56.6876 24.5738C56.4414 24.7237 56.2 24.9026 55.9635 25.1154C55.8476 25.2218 55.7318 25.3378 55.6207 25.4635C55.5097 25.5941 55.3987 25.7295 55.2925 25.8939C55.4566 26.0003 55.6159 26.0777 55.7704 26.1454C55.9249 26.213 56.0793 26.2711 56.229 26.3146C56.5331 26.4065 56.8227 26.4645 57.1124 26.4983C57.6868 26.5612 58.242 26.5225 58.7778 26.4016C59.3137 26.2807 59.8302 26.0825 60.3274 25.7827C60.5736 25.6328 60.815 25.4539 61.0515 25.2411C61.1674 25.1347 61.2832 25.0187 61.3943 24.893C61.5101 24.7672 61.6211 24.6319 61.7225 24.4674Z" fill="#F9ED32"/>
<path id="Vector_48" d="M62.4081 35.3618C62.3067 35.1974 62.1957 35.0571 62.0846 34.9266C61.9736 34.8009 61.8577 34.6848 61.7419 34.5736C61.5102 34.3608 61.2688 34.1771 61.0226 34.0272C60.5302 33.7226 60.0137 33.5195 59.4779 33.3889C58.942 33.2632 58.3917 33.2197 57.8124 33.2729C57.5228 33.3019 57.2283 33.3599 56.9242 33.4469C56.7745 33.4905 56.6201 33.5485 56.4608 33.6113C56.3063 33.679 56.147 33.7516 55.978 33.858C56.0794 34.0272 56.1904 34.1626 56.3015 34.2931C56.4125 34.4189 56.5283 34.5398 56.6442 34.6461C56.8759 34.8589 57.1173 35.0426 57.3635 35.1925C57.8559 35.4972 58.3724 35.7003 58.9082 35.826C59.4441 35.9469 59.9944 35.9952 60.5737 35.9372C60.8633 35.9082 61.1578 35.8502 61.4619 35.7631C61.6115 35.7196 61.766 35.6616 61.9205 35.5987C62.0846 35.5407 62.2439 35.4682 62.4081 35.3618Z" fill="#F9ED32"/>
<path id="Vector_49" d="M59.7867 29.9944C59.6515 29.8542 59.5163 29.743 59.3812 29.6366C59.246 29.5351 59.1108 29.4432 58.9757 29.3658C58.7053 29.2062 58.4302 29.0805 58.1598 28.979C57.6144 28.7807 57.0689 28.6937 56.5185 28.6792C55.9682 28.6695 55.4179 28.7372 54.8676 28.9161C54.5924 29.0032 54.3124 29.1192 54.0373 29.2739C53.8973 29.3513 53.7621 29.4335 53.6221 29.5351C53.4821 29.6318 53.3421 29.7381 53.2021 29.8784C53.3373 30.0186 53.4725 30.1347 53.6076 30.2362C53.7428 30.3377 53.878 30.4296 54.0131 30.507C54.2835 30.6666 54.5586 30.7923 54.829 30.8938C55.3745 31.0921 55.92 31.1791 56.4703 31.1888C57.0206 31.1985 57.5709 31.1259 58.1212 30.947C58.3964 30.86 58.6764 30.7439 58.9515 30.5892C59.0915 30.5118 59.2267 30.4296 59.3667 30.3329C59.5115 30.2362 59.6515 30.1298 59.7867 29.9944Z" fill="#F9ED32"/>
<path id="Vector_50" d="M57.6388 38.2775C57.5519 38.1034 57.4553 37.9583 57.3539 37.8181C57.2526 37.6827 57.1512 37.557 57.045 37.4361C56.8326 37.204 56.6105 37.0009 56.3788 36.8268C55.9154 36.4787 55.4182 36.2272 54.8968 36.058C54.3755 35.8839 53.83 35.792 53.2507 35.7969C52.9611 35.8017 52.6618 35.8307 52.3528 35.8936C52.1983 35.9274 52.039 35.9661 51.8797 36.0193C51.7156 36.0725 51.5515 36.1354 51.3777 36.2224C51.4646 36.3965 51.5611 36.5464 51.6577 36.6818C51.759 36.8172 51.8604 36.9477 51.9666 37.0638C52.179 37.2959 52.4011 37.499 52.6328 37.673C53.0962 38.0212 53.5934 38.2678 54.1148 38.4419C54.6361 38.6111 55.1816 38.7078 55.7657 38.6982C56.0554 38.6933 56.3547 38.6643 56.6636 38.6014C56.8181 38.5724 56.9774 38.5289 57.1367 38.4806C57.3008 38.4274 57.465 38.3693 57.6388 38.2775Z" fill="#F9ED32"/>
<path id="Vector_51" d="M12.2856 33.8772C12.4112 33.7273 12.5415 33.6112 12.6718 33.5C12.8022 33.3936 12.9325 33.2921 13.0628 33.2051C13.3235 33.031 13.589 32.8907 13.8594 32.7747C14.3952 32.5474 14.9359 32.4265 15.4814 32.3879C16.0268 32.3492 16.582 32.3879 17.142 32.5329C17.422 32.6055 17.7068 32.707 17.9916 32.8424C18.1364 32.9101 18.2764 32.9875 18.4212 33.0793C18.566 33.1712 18.7109 33.2679 18.8557 33.3985C18.7302 33.5484 18.5998 33.6693 18.4695 33.7756C18.3392 33.8869 18.2088 33.9836 18.0785 34.0706C17.8178 34.2447 17.5523 34.3897 17.282 34.501C16.7461 34.7282 16.2055 34.8443 15.66 34.8878C15.1145 34.9265 14.5593 34.883 13.9994 34.7379C13.7194 34.6654 13.4346 34.5638 13.1497 34.4284C13.0049 34.3607 12.8649 34.2834 12.7201 34.1963C12.5801 34.1045 12.4353 34.0077 12.2856 33.8772Z" fill="#D4BE29"/>
<path id="Vector_52" d="M16.9585 36.5029C17.0695 36.3434 17.1854 36.2128 17.3061 36.0871C17.4219 35.9662 17.5426 35.855 17.6681 35.7534C17.9095 35.5504 18.1605 35.386 18.4164 35.2457C18.9232 34.9653 19.4494 34.7912 19.9901 34.6945C20.5307 34.5978 21.0859 34.5833 21.6603 34.6703C21.9452 34.7138 22.2396 34.7864 22.5341 34.8927C22.6837 34.9459 22.8334 35.0088 22.9879 35.0813C23.1423 35.1587 23.2968 35.2409 23.4561 35.3569C23.3451 35.5165 23.2292 35.6519 23.1134 35.7728C22.9975 35.8937 22.8768 36.0049 22.7562 36.1064C22.5148 36.3095 22.2638 36.4739 22.0079 36.6142C21.501 36.8946 20.9749 37.0687 20.4294 37.1606C19.8887 37.2524 19.3336 37.2718 18.7591 37.1799C18.4743 37.1364 18.1798 37.0639 17.8853 36.9575C17.7357 36.9043 17.5861 36.8414 17.4316 36.7689C17.2723 36.7012 17.1178 36.619 16.9585 36.5029Z" fill="#009444"/>
<path id="Vector_53" d="M4.54248 35.3618C4.64385 35.1974 4.75488 35.0571 4.86591 34.9266C4.97694 34.8009 5.0928 34.6848 5.20866 34.5736C5.44037 34.3608 5.68174 34.1771 5.92793 34.0272C6.42032 33.7226 6.93685 33.5195 7.47269 33.3889C8.00852 33.2632 8.55884 33.2197 9.13812 33.2729C9.42777 33.3019 9.72223 33.3599 10.0264 33.4469C10.176 33.4905 10.3305 33.5485 10.4898 33.6113C10.6443 33.679 10.8036 33.7516 10.9725 33.858C10.8711 34.0272 10.7601 34.1626 10.6491 34.2931C10.5381 34.4189 10.4222 34.5398 10.3063 34.6461C10.0746 34.8589 9.83326 35.0426 9.58707 35.1925C9.09468 35.4972 8.57815 35.7003 8.04231 35.826C7.50648 35.9469 6.95616 35.9952 6.37688 35.9372C6.08723 35.9082 5.79277 35.8502 5.48864 35.7631C5.33899 35.7196 5.18452 35.6616 5.03004 35.5987C4.86591 35.5407 4.70661 35.4682 4.54248 35.3618Z" fill="#F9ED32"/>
<path id="Vector_54" d="M9.31201 38.2775C9.3989 38.1034 9.49545 37.9583 9.59683 37.8181C9.6982 37.6827 9.79957 37.557 9.90578 37.4361C10.1182 37.204 10.3402 37.0009 10.572 36.8268C11.0354 36.4787 11.5326 36.2272 12.0539 36.058C12.5753 35.8839 13.1208 35.792 13.7001 35.7969C13.9897 35.8017 14.289 35.8307 14.598 35.8936C14.7524 35.9274 14.9117 35.9661 15.071 36.0193C15.2352 36.0725 15.3993 36.1354 15.5731 36.2224C15.4862 36.3965 15.3896 36.5464 15.2931 36.6818C15.1917 36.8172 15.0904 36.9477 14.9842 37.0638C14.7717 37.2959 14.5497 37.499 14.318 37.673C13.8546 38.0212 13.3573 38.2678 12.836 38.4419C12.3146 38.6111 11.7691 38.7078 11.185 38.6982C10.8954 38.6933 10.5961 38.6643 10.2871 38.6014C10.1327 38.5724 9.97336 38.5289 9.81406 38.4806C9.64993 38.4274 9.4858 38.3693 9.31201 38.2775Z" fill="#F9ED32"/>
<path id="Vector_55" d="M15.7998 30.5891C15.9446 30.4586 16.0894 30.357 16.2343 30.2651C16.3791 30.1733 16.5191 30.0959 16.6639 30.0282C16.9487 29.888 17.2287 29.7864 17.5087 29.7091C18.0687 29.5592 18.6238 29.5108 19.1693 29.5447C19.7196 29.5785 20.2603 29.6946 20.7961 29.917C21.0665 30.0282 21.332 30.1684 21.5926 30.3377C21.723 30.4247 21.8581 30.5214 21.9885 30.6278C22.1188 30.739 22.2492 30.8551 22.3795 31.005C22.2347 31.1355 22.0899 31.2371 21.945 31.3289C21.8002 31.4208 21.6602 31.4982 21.5154 31.5659C21.2306 31.7061 20.9506 31.8077 20.6706 31.885C20.1106 32.0349 19.5555 32.0833 19.01 32.0446C18.4645 32.0059 17.919 31.8899 17.3832 31.6723C17.1128 31.561 16.8473 31.4208 16.5867 31.2516C16.4563 31.1645 16.3212 31.0678 16.1908 30.9614C16.0557 30.8551 15.9253 30.739 15.7998 30.5891Z" fill="#009444"/>
<path id="Vector_56" d="M22.9976 28.3551C23.181 28.2923 23.3548 28.2584 23.5237 28.2343C23.6927 28.2101 23.852 28.1907 24.0113 28.1859C24.3251 28.1714 24.6244 28.1907 24.914 28.2294C25.4885 28.3116 26.0147 28.4905 26.5022 28.7372C26.9898 28.9886 27.4436 29.3077 27.8491 29.7236C28.0518 29.9315 28.2401 30.1636 28.4139 30.4296C28.5007 30.5601 28.5828 30.7004 28.66 30.8551C28.7373 31.0098 28.8097 31.1694 28.8676 31.3531C28.6794 31.416 28.5104 31.4499 28.3414 31.4789C28.1725 31.503 28.0132 31.5224 27.8539 31.5272C27.5401 31.5417 27.2408 31.5272 26.9512 31.4837C26.3767 31.4015 25.8505 31.2226 25.363 30.9711C24.8754 30.7197 24.4216 30.3957 24.0161 29.9799C23.8134 29.7719 23.6251 29.5398 23.4513 29.2739C23.3644 29.1433 23.2824 29.0031 23.2051 28.8484C23.1327 28.7033 23.0555 28.5437 22.9976 28.3551Z" fill="#1C442A"/>
<path id="Vector_57" d="M44.7157 33.0263C44.5564 32.915 44.4019 32.8328 44.2474 32.7603C44.0929 32.6878 43.9433 32.6297 43.7936 32.5766C43.4943 32.475 43.2047 32.4073 42.9151 32.3638C42.3406 32.2816 41.7855 32.3058 41.2448 32.4073C40.7041 32.5089 40.1828 32.6878 39.6759 32.9731C39.4249 33.1181 39.1787 33.2874 38.9373 33.4905C38.8166 33.592 38.7008 33.7032 38.5801 33.8289C38.4642 33.9547 38.3484 34.0852 38.2422 34.2496C38.4015 34.3608 38.556 34.443 38.7104 34.5156C38.8649 34.5881 39.0146 34.651 39.1642 34.6993C39.4635 34.8009 39.7531 34.8686 40.0428 34.9121C40.6172 34.9943 41.1724 34.9701 41.7131 34.8686C42.2537 34.767 42.7751 34.5833 43.2819 34.298C43.533 34.1529 43.7792 33.9837 44.0205 33.7806C44.1412 33.679 44.2619 33.5678 44.3778 33.4421C44.4936 33.3212 44.6046 33.1907 44.7157 33.0263Z" fill="#1C442A"/>
<path id="Vector_58" d="M43.76 28.3745C43.5765 28.3116 43.4027 28.2778 43.2338 28.2536C43.0648 28.2294 42.9055 28.2101 42.7462 28.2053C42.4324 28.1907 42.1331 28.2101 41.8435 28.2488C41.269 28.331 40.7429 28.5099 40.2553 28.7565C39.7677 29.0079 39.314 29.3271 38.9085 29.7429C38.7057 29.9509 38.5174 30.183 38.3437 30.4489C38.2568 30.5795 38.1747 30.7197 38.0975 30.8744C38.0202 31.0292 37.9478 31.1887 37.8899 31.3725C38.0782 31.4353 38.2471 31.4692 38.4161 31.4982C38.585 31.5224 38.7443 31.5417 38.9036 31.5466C39.2174 31.5611 39.5167 31.5466 39.8064 31.503C40.3808 31.4208 40.907 31.2419 41.3946 30.9905C41.8821 30.739 42.3359 30.4151 42.7414 29.9992C42.9441 29.7913 43.1324 29.5592 43.3062 29.2932C43.3931 29.1627 43.4751 29.0224 43.5524 28.8677C43.6296 28.7178 43.702 28.5582 43.76 28.3745Z" fill="#1C442A"/>
<path id="Vector_59" d="M6.45874 29.6559C6.59391 29.5156 6.72907 29.4044 6.86424 29.298C6.9994 29.1965 7.13457 29.1046 7.26974 29.0273C7.54007 28.8677 7.81523 28.742 8.08556 28.6404C8.63105 28.4422 9.17654 28.3551 9.72686 28.3406C10.2772 28.3309 10.8275 28.3986 11.3778 28.5776C11.653 28.6646 11.933 28.7806 12.2081 28.9354C12.3481 29.0128 12.4833 29.095 12.6233 29.1965C12.7633 29.2932 12.9033 29.3996 13.0433 29.5398C12.9081 29.68 12.7729 29.7961 12.6378 29.8976C12.5026 29.9992 12.3674 30.0911 12.2323 30.1684C11.9619 30.328 11.6868 30.4537 11.4164 30.5553C10.8709 30.7535 10.3255 30.8406 9.77513 30.8502C9.22482 30.8599 8.6745 30.7874 8.12418 30.6085C7.84902 30.5214 7.56903 30.4054 7.29387 30.2506C7.15388 30.1733 7.01871 30.0911 6.87872 29.9943C6.73873 29.8976 6.59873 29.7913 6.45874 29.6559Z" fill="#F9ED32"/>
</g>
</g>
</g>
</svg>
